<svg xmlns="http://www.w3.org/2000/svg" xmlns:xlink="http://www.w3.org/1999/xlink" width="1266.139" height="3981.549" viewBox="0 0 1266.139 3981.549">
  <defs>
    <clipPath id="clip-path">
      <rect width="1266.139" height="3981.549" fill="none"/>
    </clipPath>
    <clipPath id="clip-path-2">
      <rect width="30" height="30" fill="none"/>
    </clipPath>
  </defs>
  <g id="bubble_L_set" clip-path="url(#clip-path)">
    <g id="bubble_L" transform="translate(657.637)" clip-path="url(#clip-path-2)">
      <path id="パス_2" data-name="パス 2" d="M15,0A15,15,0,1,1,0,15,15,15,0,0,1,15,0Z" fill="#fff" opacity="0.5"/>
    </g>
    <g id="bubble_L-2" data-name="bubble_L" transform="translate(657.637 1996)" clip-path="url(#clip-path-2)">
      <path id="パス_2-2" data-name="パス 2" d="M15,0A15,15,0,1,1,0,15,15,15,0,0,1,15,0Z" fill="#fff" opacity="0.5"/>
    </g>
    <g id="bubble_L-3" data-name="bubble_L" transform="translate(380.193 1041.079)" clip-path="url(#clip-path-2)">
      <path id="パス_2-3" data-name="パス 2" d="M15,0A15,15,0,1,1,0,15,15,15,0,0,1,15,0Z" fill="#fff" opacity="0.5"/>
    </g>
    <g id="bubble_L-4" data-name="bubble_L" transform="translate(380.193 3037.079)" clip-path="url(#clip-path-2)">
      <path id="パス_2-4" data-name="パス 2" d="M15,0A15,15,0,1,1,0,15,15,15,0,0,1,15,0Z" fill="#fff" opacity="0.5"/>
    </g>
    <g id="bubble_L-5" data-name="bubble_L" transform="translate(565.753 826.519)" clip-path="url(#clip-path-2)">
      <path id="パス_2-5" data-name="パス 2" d="M15,0A15,15,0,1,1,0,15,15,15,0,0,1,15,0Z" fill="#fff" opacity="0.5"/>
    </g>
    <g id="bubble_L-6" data-name="bubble_L" transform="translate(565.753 2822.519)" clip-path="url(#clip-path-2)">
      <path id="パス_2-6" data-name="パス 2" d="M15,0A15,15,0,1,1,0,15,15,15,0,0,1,15,0Z" fill="#fff" opacity="0.5"/>
    </g>
    <g id="bubble_L-7" data-name="bubble_L" transform="translate(338.636 786.643)" clip-path="url(#clip-path-2)">
      <path id="パス_2-7" data-name="パス 2" d="M15,0A15,15,0,1,1,0,15,15,15,0,0,1,15,0Z" fill="#fff" opacity="0.5"/>
    </g>
    <g id="bubble_L-8" data-name="bubble_L" transform="translate(338.636 2782.643)" clip-path="url(#clip-path-2)">
      <path id="パス_2-8" data-name="パス 2" d="M15,0A15,15,0,1,1,0,15,15,15,0,0,1,15,0Z" fill="#fff" opacity="0.5"/>
    </g>
    <g id="bubble_L-9" data-name="bubble_L" transform="translate(586.335 584.299)" clip-path="url(#clip-path-2)">
      <path id="パス_2-9" data-name="パス 2" d="M15,0A15,15,0,1,1,0,15,15,15,0,0,1,15,0Z" fill="#fff" opacity="0.5"/>
    </g>
    <g id="bubble_L-10" data-name="bubble_L" transform="translate(586.335 2580.299)" clip-path="url(#clip-path-2)">
      <path id="パス_2-10" data-name="パス 2" d="M15,0A15,15,0,1,1,0,15,15,15,0,0,1,15,0Z" fill="#fff" opacity="0.5"/>
    </g>
    <g id="bubble_L-11" data-name="bubble_L" transform="translate(584.324 381.357)" clip-path="url(#clip-path-2)">
      <path id="パス_2-11" data-name="パス 2" d="M15,0A15,15,0,1,1,0,15,15,15,0,0,1,15,0Z" fill="#fff" opacity="0.5"/>
    </g>
    <g id="bubble_L-12" data-name="bubble_L" transform="translate(584.324 2377.356)" clip-path="url(#clip-path-2)">
      <path id="パス_2-12" data-name="パス 2" d="M15,0A15,15,0,1,1,0,15,15,15,0,0,1,15,0Z" fill="#fff" opacity="0.5"/>
    </g>
    <g id="bubble_L-13" data-name="bubble_L" transform="translate(482.187 152.303)" clip-path="url(#clip-path-2)">
      <path id="パス_2-13" data-name="パス 2" d="M15,0A15,15,0,1,1,0,15,15,15,0,0,1,15,0Z" fill="#fff" opacity="0.5"/>
    </g>
    <g id="bubble_L-14" data-name="bubble_L" transform="translate(482.187 2148.303)" clip-path="url(#clip-path-2)">
      <path id="パス_2-14" data-name="パス 2" d="M15,0A15,15,0,1,1,0,15,15,15,0,0,1,15,0Z" fill="#fff" opacity="0.5"/>
    </g>
    <g id="bubble_L-15" data-name="bubble_L" transform="translate(60.007 1045.254)" clip-path="url(#clip-path-2)">
      <path id="パス_2-15" data-name="パス 2" d="M15,0A15,15,0,1,1,0,15,15,15,0,0,1,15,0Z" fill="#fff" opacity="0.5"/>
    </g>
    <g id="bubble_L-16" data-name="bubble_L" transform="translate(60.007 3041.254)" clip-path="url(#clip-path-2)">
      <path id="パス_2-16" data-name="パス 2" d="M15,0A15,15,0,1,1,0,15,15,15,0,0,1,15,0Z" fill="#fff" opacity="0.5"/>
    </g>
    <g id="bubble_L-17" data-name="bubble_L" transform="translate(205.785 991.193)" clip-path="url(#clip-path-2)">
      <path id="パス_2-17" data-name="パス 2" d="M15,0A15,15,0,1,1,0,15,15,15,0,0,1,15,0Z" fill="#fff" opacity="0.5"/>
    </g>
    <g id="bubble_L-18" data-name="bubble_L" transform="translate(205.785 2987.193)" clip-path="url(#clip-path-2)">
      <path id="パス_2-18" data-name="パス 2" d="M15,0A15,15,0,1,1,0,15,15,15,0,0,1,15,0Z" fill="#fff" opacity="0.5"/>
    </g>
    <g id="bubble_L-19" data-name="bubble_L" transform="translate(268.715 724.725)" clip-path="url(#clip-path-2)">
      <path id="パス_2-19" data-name="パス 2" d="M15,0A15,15,0,1,1,0,15,15,15,0,0,1,15,0Z" fill="#fff" opacity="0.5"/>
    </g>
    <g id="bubble_L-20" data-name="bubble_L" transform="translate(268.715 2720.725)" clip-path="url(#clip-path-2)">
      <path id="パス_2-20" data-name="パス 2" d="M15,0A15,15,0,1,1,0,15,15,15,0,0,1,15,0Z" fill="#fff" opacity="0.5"/>
    </g>
    <g id="bubble_L-21" data-name="bubble_L" transform="translate(161.128 474.75)" clip-path="url(#clip-path-2)">
      <path id="パス_2-21" data-name="パス 2" d="M15,0A15,15,0,1,1,0,15,15,15,0,0,1,15,0Z" fill="#fff" opacity="0.5"/>
    </g>
    <g id="bubble_L-22" data-name="bubble_L" transform="translate(161.128 2470.75)" clip-path="url(#clip-path-2)">
      <path id="パス_2-22" data-name="パス 2" d="M15,0A15,15,0,1,1,0,15,15,15,0,0,1,15,0Z" fill="#fff" opacity="0.5"/>
    </g>
    <g id="bubble_L-23" data-name="bubble_L" transform="translate(85.409 288.426)" clip-path="url(#clip-path-2)">
      <path id="パス_2-23" data-name="パス 2" d="M15,0A15,15,0,1,1,0,15,15,15,0,0,1,15,0Z" fill="#fff" opacity="0.5"/>
    </g>
    <g id="bubble_L-24" data-name="bubble_L" transform="translate(85.409 2284.426)" clip-path="url(#clip-path-2)">
      <path id="パス_2-24" data-name="パス 2" d="M15,0A15,15,0,1,1,0,15,15,15,0,0,1,15,0Z" fill="#fff" opacity="0.5"/>
    </g>
    <g id="bubble_L-25" data-name="bubble_L" transform="translate(140.096 107.741)" clip-path="url(#clip-path-2)">
      <path id="パス_2-25" data-name="パス 2" d="M15,0A15,15,0,1,1,0,15,15,15,0,0,1,15,0Z" fill="#fff" opacity="0.5"/>
    </g>
    <g id="bubble_L-26" data-name="bubble_L" transform="translate(140.096 2103.741)" clip-path="url(#clip-path-2)">
      <path id="パス_2-26" data-name="パス 2" d="M15,0A15,15,0,1,1,0,15,15,15,0,0,1,15,0Z" fill="#fff" opacity="0.5"/>
    </g>
    <g id="bubble_L-27" data-name="bubble_L" transform="translate(1110.33 1906.026)" clip-path="url(#clip-path-2)">
      <path id="パス_2-27" data-name="パス 2" d="M15,0A15,15,0,1,1,0,15,15,15,0,0,1,15,0Z" fill="#fff" opacity="0.5"/>
    </g>
    <g id="bubble_L-28" data-name="bubble_L" transform="translate(1110.33 3902.026)" clip-path="url(#clip-path-2)">
      <path id="パス_2-28" data-name="パス 2" d="M15,0A15,15,0,1,1,0,15,15,15,0,0,1,15,0Z" fill="#fff" opacity="0.5"/>
    </g>
    <g id="bubble_L-29" data-name="bubble_L" transform="translate(1124.854 1644.091)" clip-path="url(#clip-path-2)">
      <path id="パス_2-29" data-name="パス 2" d="M15,0A15,15,0,1,1,0,15,15,15,0,0,1,15,0Z" fill="#fff" opacity="0.5"/>
    </g>
    <g id="bubble_L-30" data-name="bubble_L" transform="translate(1124.854 3640.091)" clip-path="url(#clip-path-2)">
      <path id="パス_2-30" data-name="パス 2" d="M15,0A15,15,0,1,1,0,15,15,15,0,0,1,15,0Z" fill="#fff" opacity="0.5"/>
    </g>
    <g id="bubble_L-31" data-name="bubble_L" transform="translate(1234.498 1413.27)" clip-path="url(#clip-path-2)">
      <path id="パス_2-31" data-name="パス 2" d="M15,0A15,15,0,1,1,0,15,15,15,0,0,1,15,0Z" fill="#fff" opacity="0.5"/>
    </g>
    <g id="bubble_L-32" data-name="bubble_L" transform="translate(1234.498 3409.27)" clip-path="url(#clip-path-2)">
      <path id="パス_2-32" data-name="パス 2" d="M15,0A15,15,0,1,1,0,15,15,15,0,0,1,15,0Z" fill="#fff" opacity="0.5"/>
    </g>
    <g id="bubble_L-33" data-name="bubble_L" transform="translate(1000.215 1281.523)" clip-path="url(#clip-path-2)">
      <path id="パス_2-33" data-name="パス 2" d="M15,0A15,15,0,1,1,0,15,15,15,0,0,1,15,0Z" fill="#fff" opacity="0.5"/>
    </g>
    <g id="bubble_L-34" data-name="bubble_L" transform="translate(1000.215 3277.522)" clip-path="url(#clip-path-2)">
      <path id="パス_2-34" data-name="パス 2" d="M15,0A15,15,0,1,1,0,15,15,15,0,0,1,15,0Z" fill="#fff" opacity="0.5"/>
    </g>
    <g id="bubble_L-35" data-name="bubble_L" transform="translate(1197.889 1101.115)" clip-path="url(#clip-path-2)">
      <path id="パス_2-35" data-name="パス 2" d="M15,0A15,15,0,1,1,0,15,15,15,0,0,1,15,0Z" fill="#fff" opacity="0.5"/>
    </g>
    <g id="bubble_L-36" data-name="bubble_L" transform="translate(1197.889 3097.115)" clip-path="url(#clip-path-2)">
      <path id="パス_2-36" data-name="パス 2" d="M15,0A15,15,0,1,1,0,15,15,15,0,0,1,15,0Z" fill="#fff" opacity="0.5"/>
    </g>
    <g id="bubble_L-37" data-name="bubble_L" transform="translate(1236.139 810.494)" clip-path="url(#clip-path-2)">
      <path id="パス_2-37" data-name="パス 2" d="M15,0A15,15,0,1,1,0,15,15,15,0,0,1,15,0Z" fill="#fff" opacity="0.5"/>
    </g>
    <g id="bubble_L-38" data-name="bubble_L" transform="translate(1236.139 2806.494)" clip-path="url(#clip-path-2)">
      <path id="パス_2-38" data-name="パス 2" d="M15,0A15,15,0,1,1,0,15,15,15,0,0,1,15,0Z" fill="#fff" opacity="0.5"/>
    </g>
    <g id="bubble_L-39" data-name="bubble_L" transform="translate(1197.383 670.212)" clip-path="url(#clip-path-2)">
      <path id="パス_2-39" data-name="パス 2" d="M15,0A15,15,0,1,1,0,15,15,15,0,0,1,15,0Z" fill="#fff" opacity="0.5"/>
    </g>
    <g id="bubble_L-40" data-name="bubble_L" transform="translate(1197.383 2666.212)" clip-path="url(#clip-path-2)">
      <path id="パス_2-40" data-name="パス 2" d="M15,0A15,15,0,1,1,0,15,15,15,0,0,1,15,0Z" fill="#fff" opacity="0.5"/>
    </g>
    <g id="bubble_L-41" data-name="bubble_L" transform="translate(1069.354 550.885)" clip-path="url(#clip-path-2)">
      <path id="パス_2-41" data-name="パス 2" d="M15,0A15,15,0,1,1,0,15,15,15,0,0,1,15,0Z" fill="#fff" opacity="0.5"/>
    </g>
    <g id="bubble_L-42" data-name="bubble_L" transform="translate(1069.354 2546.885)" clip-path="url(#clip-path-2)">
      <path id="パス_2-42" data-name="パス 2" d="M15,0A15,15,0,1,1,0,15,15,15,0,0,1,15,0Z" fill="#fff" opacity="0.5"/>
    </g>
    <g id="bubble_L-43" data-name="bubble_L" transform="translate(1101.373 262.041)" clip-path="url(#clip-path-2)">
      <path id="パス_2-43" data-name="パス 2" d="M15,0A15,15,0,1,1,0,15,15,15,0,0,1,15,0Z" fill="#fff" opacity="0.5"/>
    </g>
    <g id="bubble_L-44" data-name="bubble_L" transform="translate(1101.373 2258.041)" clip-path="url(#clip-path-2)">
      <path id="パス_2-44" data-name="パス 2" d="M15,0A15,15,0,1,1,0,15,15,15,0,0,1,15,0Z" fill="#fff" opacity="0.5"/>
    </g>
    <g id="bubble_L-45" data-name="bubble_L" transform="translate(1042.156 32.521)" clip-path="url(#clip-path-2)">
      <path id="パス_2-45" data-name="パス 2" d="M15,0A15,15,0,1,1,0,15,15,15,0,0,1,15,0Z" fill="#fff" opacity="0.5"/>
    </g>
    <g id="bubble_L-46" data-name="bubble_L" transform="translate(1042.156 2028.521)" clip-path="url(#clip-path-2)">
      <path id="パス_2-46" data-name="パス 2" d="M15,0A15,15,0,1,1,0,15,15,15,0,0,1,15,0Z" fill="#fff" opacity="0.5"/>
    </g>
    <g id="bubble_L-47" data-name="bubble_L" transform="translate(955.639 1933.734)" clip-path="url(#clip-path-2)">
      <path id="パス_2-47" data-name="パス 2" d="M15,0A15,15,0,1,1,0,15,15,15,0,0,1,15,0Z" fill="#fff" opacity="0.5"/>
    </g>
    <g id="bubble_L-48" data-name="bubble_L" transform="translate(955.639 3929.733)" clip-path="url(#clip-path-2)">
      <path id="パス_2-48" data-name="パス 2" d="M15,0A15,15,0,1,1,0,15,15,15,0,0,1,15,0Z" fill="#fff" opacity="0.5"/>
    </g>
    <g id="bubble_L-49" data-name="bubble_L" transform="translate(951.584 1667.4)" clip-path="url(#clip-path-2)">
      <path id="パス_2-49" data-name="パス 2" d="M15,0A15,15,0,1,1,0,15,15,15,0,0,1,15,0Z" fill="#fff" opacity="0.5"/>
    </g>
    <g id="bubble_L-50" data-name="bubble_L" transform="translate(951.584 3663.399)" clip-path="url(#clip-path-2)">
      <path id="パス_2-50" data-name="パス 2" d="M15,0A15,15,0,1,1,0,15,15,15,0,0,1,15,0Z" fill="#fff" opacity="0.5"/>
    </g>
    <g id="bubble_L-51" data-name="bubble_L" transform="translate(639.816 1540.254)" clip-path="url(#clip-path-2)">
      <path id="パス_2-51" data-name="パス 2" d="M15,0A15,15,0,1,1,0,15,15,15,0,0,1,15,0Z" fill="#fff" opacity="0.5"/>
    </g>
    <g id="bubble_L-52" data-name="bubble_L" transform="translate(639.816 3536.254)" clip-path="url(#clip-path-2)">
      <path id="パス_2-52" data-name="パス 2" d="M15,0A15,15,0,1,1,0,15,15,15,0,0,1,15,0Z" fill="#fff" opacity="0.5"/>
    </g>
    <g id="bubble_L-53" data-name="bubble_L" transform="translate(685.959 1244.572)" clip-path="url(#clip-path-2)">
      <path id="パス_2-53" data-name="パス 2" d="M15,0A15,15,0,1,1,0,15,15,15,0,0,1,15,0Z" fill="#fff" opacity="0.5"/>
    </g>
    <g id="bubble_L-54" data-name="bubble_L" transform="translate(685.959 3240.572)" clip-path="url(#clip-path-2)">
      <path id="パス_2-54" data-name="パス 2" d="M15,0A15,15,0,1,1,0,15,15,15,0,0,1,15,0Z" fill="#fff" opacity="0.5"/>
    </g>
    <g id="bubble_L-55" data-name="bubble_L" transform="translate(810.02 1162.93)" clip-path="url(#clip-path-2)">
      <path id="パス_2-55" data-name="パス 2" d="M15,0A15,15,0,1,1,0,15,15,15,0,0,1,15,0Z" fill="#fff" opacity="0.5"/>
    </g>
    <g id="bubble_L-56" data-name="bubble_L" transform="translate(810.02 3158.93)" clip-path="url(#clip-path-2)">
      <path id="パス_2-56" data-name="パス 2" d="M15,0A15,15,0,1,1,0,15,15,15,0,0,1,15,0Z" fill="#fff" opacity="0.5"/>
    </g>
    <g id="bubble_L-57" data-name="bubble_L" transform="translate(858.297 876.568)" clip-path="url(#clip-path-2)">
      <path id="パス_2-57" data-name="パス 2" d="M15,0A15,15,0,1,1,0,15,15,15,0,0,1,15,0Z" fill="#fff" opacity="0.5"/>
    </g>
    <g id="bubble_L-58" data-name="bubble_L" transform="translate(858.297 2872.568)" clip-path="url(#clip-path-2)">
      <path id="パス_2-58" data-name="パス 2" d="M15,0A15,15,0,1,1,0,15,15,15,0,0,1,15,0Z" fill="#fff" opacity="0.5"/>
    </g>
    <g id="bubble_L-59" data-name="bubble_L" transform="translate(793.896 789.232)" clip-path="url(#clip-path-2)">
      <path id="パス_2-59" data-name="パス 2" d="M15,0A15,15,0,1,1,0,15,15,15,0,0,1,15,0Z" fill="#fff" opacity="0.5"/>
    </g>
    <g id="bubble_L-60" data-name="bubble_L" transform="translate(793.896 2785.231)" clip-path="url(#clip-path-2)">
      <path id="パス_2-60" data-name="パス 2" d="M15,0A15,15,0,1,1,0,15,15,15,0,0,1,15,0Z" fill="#fff" opacity="0.5"/>
    </g>
    <g id="bubble_L-61" data-name="bubble_L" transform="translate(895.299 440.119)" clip-path="url(#clip-path-2)">
      <path id="パス_2-61" data-name="パス 2" d="M15,0A15,15,0,1,1,0,15,15,15,0,0,1,15,0Z" fill="#fff" opacity="0.5"/>
    </g>
    <g id="bubble_L-62" data-name="bubble_L" transform="translate(895.299 2436.119)" clip-path="url(#clip-path-2)">
      <path id="パス_2-62" data-name="パス 2" d="M15,0A15,15,0,1,1,0,15,15,15,0,0,1,15,0Z" fill="#fff" opacity="0.5"/>
    </g>
    <g id="bubble_L-63" data-name="bubble_L" transform="translate(833.553 346.85)" clip-path="url(#clip-path-2)">
      <path id="パス_2-63" data-name="パス 2" d="M15,0A15,15,0,1,1,0,15,15,15,0,0,1,15,0Z" fill="#fff" opacity="0.5"/>
    </g>
    <g id="bubble_L-64" data-name="bubble_L" transform="translate(833.553 2342.85)" clip-path="url(#clip-path-2)">
      <path id="パス_2-64" data-name="パス 2" d="M15,0A15,15,0,1,1,0,15,15,15,0,0,1,15,0Z" fill="#fff" opacity="0.5"/>
    </g>
    <g id="bubble_L-65" data-name="bubble_L" transform="translate(441.527 1955.549)" clip-path="url(#clip-path-2)">
      <path id="パス_2-65" data-name="パス 2" d="M15,0A15,15,0,1,1,0,15,15,15,0,0,1,15,0Z" fill="#fff" opacity="0.5"/>
    </g>
    <g id="bubble_L-66" data-name="bubble_L" transform="translate(441.527 3951.549)" clip-path="url(#clip-path-2)">
      <path id="パス_2-66" data-name="パス 2" d="M15,0A15,15,0,1,1,0,15,15,15,0,0,1,15,0Z" fill="#fff" opacity="0.5"/>
    </g>
    <g id="bubble_L-67" data-name="bubble_L" transform="translate(356.217 1700.177)" clip-path="url(#clip-path-2)">
      <path id="パス_2-67" data-name="パス 2" d="M15,0A15,15,0,1,1,0,15,15,15,0,0,1,15,0Z" fill="#fff" opacity="0.5"/>
    </g>
    <g id="bubble_L-68" data-name="bubble_L" transform="translate(356.217 3696.177)" clip-path="url(#clip-path-2)">
      <path id="パス_2-68" data-name="パス 2" d="M15,0A15,15,0,1,1,0,15,15,15,0,0,1,15,0Z" fill="#fff" opacity="0.5"/>
    </g>
    <g id="bubble_L-69" data-name="bubble_L" transform="translate(562.148 1479.741)" clip-path="url(#clip-path-2)">
      <path id="パス_2-69" data-name="パス 2" d="M15,0A15,15,0,1,1,0,15,15,15,0,0,1,15,0Z" fill="#fff" opacity="0.5"/>
    </g>
    <g id="bubble_L-70" data-name="bubble_L" transform="translate(562.148 3475.741)" clip-path="url(#clip-path-2)">
      <path id="パス_2-70" data-name="パス 2" d="M15,0A15,15,0,1,1,0,15,15,15,0,0,1,15,0Z" fill="#fff" opacity="0.5"/>
    </g>
    <g id="bubble_L-71" data-name="bubble_L" transform="translate(483.492 1362.68)" clip-path="url(#clip-path-2)">
      <path id="パス_2-71" data-name="パス 2" d="M15,0A15,15,0,1,1,0,15,15,15,0,0,1,15,0Z" fill="#fff" opacity="0.5"/>
    </g>
    <g id="bubble_L-72" data-name="bubble_L" transform="translate(483.492 3358.68)" clip-path="url(#clip-path-2)">
      <path id="パス_2-72" data-name="パス 2" d="M15,0A15,15,0,1,1,0,15,15,15,0,0,1,15,0Z" fill="#fff" opacity="0.5"/>
    </g>
    <g id="bubble_L-73" data-name="bubble_L" transform="translate(274.609 1815.835)" clip-path="url(#clip-path-2)">
      <path id="パス_2-73" data-name="パス 2" d="M15,0A15,15,0,1,1,0,15,15,15,0,0,1,15,0Z" fill="#fff" opacity="0.5"/>
    </g>
    <g id="bubble_L-74" data-name="bubble_L" transform="translate(274.609 3811.835)" clip-path="url(#clip-path-2)">
      <path id="パス_2-74" data-name="パス 2" d="M15,0A15,15,0,1,1,0,15,15,15,0,0,1,15,0Z" fill="#fff" opacity="0.5"/>
    </g>
    <g id="bubble_L-75" data-name="bubble_L" transform="translate(141.016 1643.423)" clip-path="url(#clip-path-2)">
      <path id="パス_2-75" data-name="パス 2" d="M15,0A15,15,0,1,1,0,15,15,15,0,0,1,15,0Z" fill="#fff" opacity="0.5"/>
    </g>
    <g id="bubble_L-76" data-name="bubble_L" transform="translate(141.016 3639.423)" clip-path="url(#clip-path-2)">
      <path id="パス_2-76" data-name="パス 2" d="M15,0A15,15,0,1,1,0,15,15,15,0,0,1,15,0Z" fill="#fff" opacity="0.5"/>
    </g>
    <g id="bubble_L-77" data-name="bubble_L" transform="translate(0 1454.4)" clip-path="url(#clip-path-2)">
      <path id="パス_2-77" data-name="パス 2" d="M15,0A15,15,0,1,1,0,15,15,15,0,0,1,15,0Z" fill="#fff" opacity="0.5"/>
    </g>
    <g id="bubble_L-78" data-name="bubble_L" transform="translate(0 3450.399)" clip-path="url(#clip-path-2)">
      <path id="パス_2-78" data-name="パス 2" d="M15,0A15,15,0,1,1,0,15,15,15,0,0,1,15,0Z" fill="#fff" opacity="0.5"/>
    </g>
    <g id="bubble_L-79" data-name="bubble_L" transform="translate(38.896 1383)" clip-path="url(#clip-path-2)">
      <path id="パス_2-79" data-name="パス 2" d="M15,0A15,15,0,1,1,0,15,15,15,0,0,1,15,0Z" fill="#fff" opacity="0.5"/>
    </g>
    <g id="bubble_L-80" data-name="bubble_L" transform="translate(38.896 3379)" clip-path="url(#clip-path-2)">
      <path id="パス_2-80" data-name="パス 2" d="M15,0A15,15,0,1,1,0,15,15,15,0,0,1,15,0Z" fill="#fff" opacity="0.5"/>
    </g>
  </g>
</svg>
